<?xml version="1.0" standalone="no"?>
<!DOCTYPE svg PUBLIC "-//W3C//DTD SVG 20010904//EN"
 "http://www.w3.org/TR/2001/REC-SVG-20010904/DTD/svg10.dtd">
<svg version="1.0" xmlns="http://www.w3.org/2000/svg"
 width="1946.000000pt" height="1064.000000pt" viewBox="0 0 1946.000000 1064.000000"
 preserveAspectRatio="xMidYMid meet">

<g transform="translate(0.000000,1064.000000) scale(0.100000,-0.100000)"
fill="#000000" stroke="none">
<path d="M0 5320 l0 -5320 9730 0 9730 0 0 5320 0 5320 -9730 0 -9730 0 0
-5320z m19080 20 l0 -5080 -9386 0 c-8121 0 -9387 2 -9400 14 -12 13 -14 703
-14 5080 l0 5066 9400 0 9400 0 0 -5080z"/>
<path d="M320 7910 l0 -2470 2360 0 2360 0 0 170 c0 107 4 170 10 170 6 0 10
40 10 100 0 60 4 100 10 100 6 0 10 33 10 80 0 47 4 80 10 80 6 0 10 27 10 60
0 33 4 60 10 60 6 0 10 27 10 60 0 33 4 60 10 60 6 0 10 18 10 40 0 22 5 40
10 40 6 0 10 23 10 50 0 28 5 50 10 50 6 0 10 18 10 40 0 22 5 40 10 40 6 0
10 18 10 40 0 22 5 40 10 40 6 0 10 18 10 40 0 22 5 40 10 40 6 0 10 14 10 30
0 17 5 30 10 30 6 0 10 14 10 30 0 17 5 30 10 30 6 0 10 18 10 40 0 22 5 40
10 40 6 0 10 14 10 30 0 17 5 30 10 30 6 0 10 14 10 30 0 17 5 30 10 30 6 0
10 14 10 30 0 17 5 30 10 30 6 0 10 9 10 20 0 11 5 20 10 20 6 0 10 14 10 30
0 17 5 30 10 30 6 0 10 14 10 30 0 17 5 30 10 30 6 0 10 9 10 20 0 11 5 20 10
20 6 0 10 14 10 30 0 17 5 30 10 30 6 0 10 9 10 20 0 11 5 20 10 20 6 0 10 9
10 20 0 11 5 20 10 20 6 0 10 9 10 20 0 11 5 20 10 20 6 0 10 14 10 30 0 17 5
30 10 30 6 0 10 9 10 20 0 11 5 20 10 20 6 0 10 9 10 20 0 11 5 20 10 20 6 0
10 9 10 20 0 11 5 20 10 20 6 0 10 9 10 20 0 11 5 20 10 20 6 0 10 8 10 18 0
10 9 24 20 32 11 8 20 22 20 32 0 10 5 18 10 18 6 0 10 9 10 20 0 11 5 20 10
20 6 0 10 9 10 20 0 11 5 20 10 20 6 0 10 8 10 18 0 10 9 24 20 32 11 8 20 22
20 32 0 10 5 18 10 18 6 0 10 8 10 18 0 10 9 24 20 32 11 8 20 22 20 32 0 10
5 18 10 18 6 0 10 8 10 18 0 10 9 24 20 32 11 8 20 21 20 30 0 9 9 22 20 30
11 8 20 21 20 30 0 9 9 22 20 30 11 8 20 21 20 28 0 8 13 27 30 42 16 15 30
33 30 40 0 7 13 25 30 40 17 15 30 33 30 40 0 7 14 25 30 40 16 15 30 33 30
40 0 6 22 33 50 60 27 27 50 54 50 60 0 6 32 42 70 80 39 38 70 74 70 80 0 13
287 300 300 300 6 0 42 32 80 70 38 39 74 70 80 70 6 0 29 18 50 40 21 22 44
40 50 40 6 0 29 18 50 40 21 22 45 40 52 40 7 0 20 9 28 20 8 11 21 20 28 20
8 0 27 14 42 30 15 17 34 30 42 30 7 0 20 9 28 20 8 11 21 20 30 20 9 0 22 9
30 20 8 11 21 20 30 20 9 0 22 9 30 20 8 11 21 20 30 20 9 0 22 9 30 20 8 11
22 20 32 20 10 0 18 5 18 10 0 6 9 10 20 10 11 0 20 5 20 10 0 6 8 10 18 10
10 0 24 9 32 20 8 11 22 20 32 20 10 0 18 5 18 10 0 6 9 10 20 10 11 0 20 5
20 10 0 6 9 10 20 10 11 0 20 5 20 10 0 6 9 10 20 10 11 0 20 5 20 10 0 6 9
10 20 10 11 0 20 5 20 10 0 6 9 10 20 10 11 0 20 5 20 10 0 6 9 10 20 10 11 0
20 5 20 10 0 6 9 10 20 10 11 0 20 5 20 10 0 6 9 10 20 10 11 0 20 5 20 10 0
6 9 10 20 10 11 0 20 5 20 10 0 6 9 10 20 10 11 0 20 5 20 10 0 6 14 10 30 10
17 0 30 5 30 10 0 6 9 10 20 10 11 0 20 5 20 10 0 6 14 10 30 10 17 0 30 5 30
10 0 6 9 10 20 10 11 0 20 5 20 10 0 6 14 10 30 10 17 0 30 5 30 10 0 6 14 10
30 10 17 0 30 5 30 10 0 6 14 10 30 10 17 0 30 5 30 10 0 6 14 10 30 10 17 0
30 5 30 10 0 6 14 10 30 10 17 0 30 5 30 10 0 6 14 10 30 10 17 0 30 5 30 10
0 6 18 10 40 10 22 0 40 5 40 10 0 6 18 10 40 10 22 0 40 5 40 10 0 6 18 10
40 10 22 0 40 5 40 10 0 6 23 10 50 10 28 0 50 5 50 10 0 6 23 10 50 10 28 0
50 5 50 10 0 6 27 10 60 10 33 0 60 4 60 10 0 6 30 10 70 10 40 0 70 4 70 10
0 7 -1493 10 -4460 10 l-4460 0 0 -2470z"/>
<path d="M10320 10370 c0 -6 30 -10 70 -10 40 0 70 -4 70 -10 0 -6 27 -10 60
-10 33 0 60 -4 60 -10 0 -5 23 -10 50 -10 28 0 50 -4 50 -10 0 -5 23 -10 50
-10 28 0 50 -4 50 -10 0 -5 18 -10 40 -10 22 0 40 -4 40 -10 0 -5 18 -10 40
-10 22 0 40 -4 40 -10 0 -5 18 -10 40 -10 22 0 40 -4 40 -10 0 -5 14 -10 30
-10 17 0 30 -4 30 -10 0 -5 14 -10 30 -10 17 0 30 -4 30 -10 0 -5 14 -10 30
-10 17 0 30 -4 30 -10 0 -5 14 -10 30 -10 17 0 30 -4 30 -10 0 -5 14 -10 30
-10 17 0 30 -4 30 -10 0 -5 14 -10 30 -10 17 0 30 -4 30 -10 0 -5 9 -10 20
-10 11 0 20 -4 20 -10 0 -5 14 -10 30 -10 17 0 30 -4 30 -10 0 -5 9 -10 20
-10 11 0 20 -4 20 -10 0 -5 14 -10 30 -10 17 0 30 -4 30 -10 0 -5 9 -10 20
-10 11 0 20 -4 20 -10 0 -5 9 -10 20 -10 11 0 20 -4 20 -10 0 -5 9 -10 20 -10
11 0 20 -4 20 -10 0 -5 9 -10 20 -10 11 0 20 -4 20 -10 0 -5 9 -10 20 -10 11
0 20 -4 20 -10 0 -5 9 -10 20 -10 11 0 20 -4 20 -10 0 -5 9 -10 20 -10 11 0
20 -4 20 -10 0 -5 9 -10 20 -10 11 0 20 -4 20 -10 0 -5 9 -10 20 -10 11 0 20
-4 20 -10 0 -5 9 -10 20 -10 11 0 20 -4 20 -10 0 -5 9 -10 20 -10 11 0 20 -4
20 -10 0 -5 8 -10 18 -10 10 0 24 -9 32 -20 8 -11 22 -20 32 -20 10 0 18 -4
18 -10 0 -5 8 -10 18 -10 10 0 24 -9 32 -20 8 -11 22 -20 32 -20 10 0 18 -4
18 -10 0 -5 8 -10 18 -10 10 0 24 -9 32 -20 8 -11 21 -20 28 -20 8 0 27 -13
42 -30 15 -16 34 -30 42 -30 7 0 20 -9 28 -20 8 -11 21 -20 28 -20 8 0 27 -13
42 -30 15 -16 33 -30 40 -30 7 0 25 -13 40 -30 15 -16 33 -30 40 -30 6 0 33
-22 60 -50 27 -27 54 -50 60 -50 6 0 33 -22 60 -50 27 -27 54 -50 59 -50 14 0
381 -367 381 -380 0 -6 32 -42 70 -80 39 -38 70 -74 70 -80 0 -6 18 -29 40
-50 22 -21 40 -44 40 -50 0 -6 18 -29 40 -50 22 -21 40 -45 40 -52 0 -7 9 -20
20 -28 11 -8 20 -21 20 -28 0 -8 14 -27 30 -42 17 -15 30 -34 30 -42 0 -7 9
-20 20 -28 11 -8 20 -21 20 -30 0 -9 9 -22 20 -30 11 -8 20 -21 20 -30 0 -9 9
-22 20 -30 11 -8 20 -22 20 -32 0 -10 5 -18 10 -18 6 0 10 -8 10 -18 0 -10 9
-24 20 -32 11 -8 20 -22 20 -32 0 -10 5 -18 10 -18 6 0 10 -8 10 -18 0 -10 9
-24 20 -32 11 -8 20 -22 20 -32 0 -10 5 -18 10 -18 6 0 10 -9 10 -20 0 -11 5
-20 10 -20 6 0 10 -9 10 -20 0 -11 5 -20 10 -20 6 0 10 -8 10 -18 0 -10 9 -24
20 -32 11 -8 20 -22 20 -32 0 -10 5 -18 10 -18 6 0 10 -9 10 -20 0 -11 5 -20
10 -20 6 0 10 -9 10 -20 0 -11 5 -20 10 -20 6 0 10 -9 10 -20 0 -11 5 -20 10
-20 6 0 10 -9 10 -20 0 -11 5 -20 10 -20 6 0 10 -13 10 -30 0 -16 5 -30 10
-30 6 0 10 -9 10 -20 0 -11 5 -20 10 -20 6 0 10 -9 10 -20 0 -11 5 -20 10 -20
6 0 10 -9 10 -20 0 -11 5 -20 10 -20 6 0 10 -13 10 -30 0 -16 5 -30 10 -30 6
0 10 -9 10 -20 0 -11 5 -20 10 -20 6 0 10 -13 10 -30 0 -16 5 -30 10 -30 6 0
10 -13 10 -30 0 -16 5 -30 10 -30 6 0 10 -9 10 -20 0 -11 5 -20 10 -20 6 0 10
-13 10 -30 0 -16 5 -30 10 -30 6 0 10 -13 10 -30 0 -16 5 -30 10 -30 6 0 10
-13 10 -30 0 -16 5 -30 10 -30 6 0 10 -18 10 -40 0 -22 5 -40 10 -40 6 0 10
-13 10 -30 0 -16 5 -30 10 -30 6 0 10 -13 10 -30 0 -16 5 -30 10 -30 6 0 10
-18 10 -40 0 -22 5 -40 10 -40 6 0 10 -18 10 -40 0 -22 5 -40 10 -40 6 0 10
-18 10 -40 0 -22 5 -40 10 -40 6 0 10 -22 10 -50 0 -27 5 -50 10 -50 6 0 10
-22 10 -50 0 -27 5 -50 10 -50 6 0 10 -22 10 -50 0 -27 5 -50 10 -50 6 0 10
-27 10 -60 0 -33 4 -60 10 -60 6 0 10 -33 10 -80 0 -47 4 -80 10 -80 6 0 10
-43 10 -110 0 -67 4 -110 10 -110 6 0 10 -57 10 -150 l0 -150 2240 0 2240 0 0
2470 0 2470 -4350 0 c-2893 0 -4350 -3 -4350 -10z"/>
<path d="M9300 10290 c0 -5 -18 -10 -40 -10 -22 0 -40 -4 -40 -10 0 -6 -33
-10 -80 -10 -47 0 -80 -4 -80 -10 0 -6 -27 -10 -60 -10 -33 0 -60 -4 -60 -10
0 -5 -22 -10 -50 -10 -27 0 -50 -4 -50 -10 0 -5 -22 -10 -50 -10 -27 0 -50 -4
-50 -10 0 -5 -18 -10 -40 -10 -22 0 -40 -4 -40 -10 0 -5 -18 -10 -40 -10 -22
0 -40 -4 -40 -10 0 -5 -13 -10 -30 -10 -16 0 -30 -4 -30 -10 0 -5 -18 -10 -40
-10 -22 0 -40 -4 -40 -10 0 -5 -13 -10 -30 -10 -16 0 -30 -4 -30 -10 0 -5 -13
-10 -30 -10 -16 0 -30 -4 -30 -10 0 -5 -13 -10 -30 -10 -16 0 -30 -4 -30 -10
0 -5 -9 -10 -20 -10 -11 0 -20 -4 -20 -10 0 -5 -13 -10 -30 -10 -16 0 -30 -4
-30 -10 0 -5 -13 -10 -30 -10 -16 0 -30 -4 -30 -10 0 -5 -9 -10 -20 -10 -11 0
-20 -4 -20 -10 0 -5 -13 -10 -30 -10 -16 0 -30 -4 -30 -10 0 -5 -9 -10 -20
-10 -11 0 -20 -4 -20 -10 0 -5 -9 -10 -20 -10 -11 0 -20 -4 -20 -10 0 -5 -9
-10 -20 -10 -11 0 -20 -4 -20 -10 0 -5 -9 -10 -20 -10 -11 0 -20 -4 -20 -10 0
-5 -9 -10 -20 -10 -11 0 -20 -4 -20 -10 0 -5 -9 -10 -20 -10 -11 0 -20 -4 -20
-10 0 -5 -9 -10 -20 -10 -11 0 -20 -4 -20 -10 0 -5 -9 -10 -20 -10 -11 0 -20
-4 -20 -10 0 -5 -9 -10 -20 -10 -11 0 -20 -4 -20 -10 0 -5 -9 -10 -20 -10 -11
0 -20 -4 -20 -10 0 -5 -9 -10 -20 -10 -11 0 -20 -4 -20 -10 0 -5 -8 -10 -18
-10 -10 0 -24 -9 -32 -20 -8 -11 -22 -20 -32 -20 -10 0 -18 -4 -18 -10 0 -5
-9 -10 -20 -10 -11 0 -20 -4 -20 -10 0 -5 -8 -10 -18 -10 -10 0 -24 -9 -32
-20 -8 -11 -21 -20 -30 -20 -9 0 -22 -9 -30 -20 -8 -11 -21 -20 -30 -20 -9 0
-22 -9 -30 -20 -8 -11 -21 -20 -30 -20 -9 0 -22 -9 -30 -20 -8 -11 -21 -20
-28 -20 -8 0 -27 -13 -42 -30 -15 -16 -33 -30 -40 -30 -6 0 -38 -27 -70 -60
-32 -33 -64 -60 -70 -60 -6 0 -33 -22 -60 -50 -27 -27 -54 -50 -60 -50 -6 0
-42 -31 -80 -70 -38 -38 -74 -70 -80 -70 -13 0 -340 -327 -340 -340 0 -6 -27
-38 -60 -70 -33 -32 -60 -64 -60 -70 0 -6 -18 -29 -40 -50 -22 -21 -40 -44
-40 -50 0 -7 -13 -25 -30 -40 -16 -15 -30 -34 -30 -42 0 -7 -9 -20 -20 -28
-11 -8 -20 -21 -20 -28 0 -8 -13 -27 -30 -42 -16 -15 -30 -34 -30 -42 0 -7 -9
-20 -20 -28 -11 -8 -20 -22 -20 -32 0 -10 -4 -18 -10 -18 -5 0 -10 -8 -10 -18
0 -10 -9 -24 -20 -32 -11 -8 -20 -21 -20 -30 0 -9 -9 -22 -20 -30 -11 -8 -20
-22 -20 -32 0 -10 -4 -18 -10 -18 -5 0 -10 -8 -10 -18 0 -10 -9 -24 -20 -32
-11 -8 -20 -22 -20 -32 0 -10 -4 -18 -10 -18 -5 0 -10 -9 -10 -20 0 -11 -4
-20 -10 -20 -5 0 -10 -9 -10 -20 0 -11 -4 -20 -10 -20 -5 0 -10 -8 -10 -18 0
-10 -9 -24 -20 -32 -11 -8 -20 -22 -20 -32 0 -10 -4 -18 -10 -18 -5 0 -10 -9
-10 -20 0 -11 -4 -20 -10 -20 -5 0 -10 -9 -10 -20 0 -11 -4 -20 -10 -20 -5 0
-10 -9 -10 -20 0 -11 -4 -20 -10 -20 -5 0 -10 -9 -10 -20 0 -11 -4 -20 -10
-20 -5 0 -10 -9 -10 -20 0 -11 -4 -20 -10 -20 -5 0 -10 -13 -10 -30 0 -16 -4
-30 -10 -30 -5 0 -10 -9 -10 -20 0 -11 -4 -20 -10 -20 -5 0 -10 -9 -10 -20 0
-11 -4 -20 -10 -20 -5 0 -10 -9 -10 -20 0 -11 -4 -20 -10 -20 -5 0 -10 -13
-10 -30 0 -16 -4 -30 -10 -30 -5 0 -10 -9 -10 -20 0 -11 -4 -20 -10 -20 -5 0
-10 -13 -10 -30 0 -16 -4 -30 -10 -30 -5 0 -10 -9 -10 -20 0 -11 -4 -20 -10
-20 -5 0 -10 -13 -10 -30 0 -16 -4 -30 -10 -30 -5 0 -10 -13 -10 -30 0 -16 -4
-30 -10 -30 -5 0 -10 -13 -10 -30 0 -16 -4 -30 -10 -30 -5 0 -10 -13 -10 -30
0 -16 -4 -30 -10 -30 -5 0 -10 -18 -10 -40 0 -22 -4 -40 -10 -40 -5 0 -10 -13
-10 -30 0 -16 -4 -30 -10 -30 -5 0 -10 -18 -10 -40 0 -22 -4 -40 -10 -40 -5 0
-10 -13 -10 -30 0 -16 -4 -30 -10 -30 -5 0 -10 -22 -10 -50 0 -27 -4 -50 -10
-50 -5 0 -10 -18 -10 -40 0 -22 -4 -40 -10 -40 -5 0 -10 -22 -10 -50 0 -27 -4
-50 -10 -50 -5 0 -10 -22 -10 -50 0 -27 -4 -50 -10 -50 -6 0 -10 -27 -10 -60
0 -33 -4 -60 -10 -60 -6 0 -10 -40 -10 -100 0 -60 -4 -100 -10 -100 -6 0 -10
-90 -10 -250 0 -217 2 -250 15 -250 17 0 105 84 105 100 0 6 81 91 180 190 99
99 180 184 180 190 0 6 63 73 140 150 77 77 140 144 140 150 0 6 59 69 130
140 72 71 130 134 130 140 0 15 25 40 40 40 15 0 40 25 40 40 0 6 59 69 130
140 72 71 130 136 130 145 0 8 9 15 20 15 11 0 20 7 20 15 0 9 54 69 120 135
66 66 120 126 120 135 0 8 9 15 20 15 11 0 20 7 20 15 0 9 59 74 130 145 72
71 130 136 130 145 0 8 7 15 16 15 18 0 44 23 44 40 0 6 63 73 140 150 77 77
140 144 140 150 0 6 59 69 130 140 72 71 130 136 130 145 0 8 9 15 20 15 12 0
20 7 20 16 0 20 24 44 44 44 9 0 16 7 16 15 0 9 50 65 110 125 61 60 110 116
110 125 0 8 9 15 20 15 11 0 20 7 20 15 0 9 63 78 140 155 77 77 140 144 140
150 0 16 88 100 105 100 8 0 15 7 15 15 0 9 36 51 80 95 44 44 80 84 80 90 0
15 25 40 40 40 15 0 40 25 40 40 0 6 54 64 120 130 66 66 120 126 120 135 0 8
7 15 16 15 18 0 44 23 44 40 0 6 59 69 130 140 72 71 130 134 130 140 0 6 72
82 160 170 88 88 160 166 160 175 0 8 9 15 20 15 11 0 20 7 20 16 0 8 27 42
60 74 33 32 60 61 60 64 0 4 -85 6 -190 6 -120 0 -190 -4 -190 -10z"/>
<path d="M9840 7870 l0 -2430 2220 0 c1473 0 2220 3 2220 10 0 6 -4 10 -10 10
-5 0 -10 7 -10 16 0 20 -24 44 -44 44 -9 0 -16 7 -16 15 0 9 -31 47 -70 85
-38 38 -70 74 -70 80 0 6 -49 60 -110 120 -60 60 -110 114 -110 120 0 6 -49
60 -110 120 -60 60 -110 114 -110 120 0 6 -45 55 -100 110 -55 55 -100 104
-100 110 0 6 -45 55 -100 110 -55 55 -100 104 -100 110 0 6 -49 60 -110 120
-60 60 -110 114 -110 120 0 6 -45 55 -100 110 -55 55 -100 104 -100 110 0 6
-45 55 -100 110 -55 55 -100 104 -100 110 0 6 -49 60 -110 120 -60 60 -110
114 -110 120 0 6 -49 60 -110 120 -60 60 -110 114 -110 120 0 6 -45 55 -100
110 -55 55 -100 104 -100 110 0 6 -45 55 -100 110 -55 55 -100 104 -100 110 0
6 -49 60 -110 120 -60 60 -110 114 -110 120 0 6 -49 60 -110 120 -60 60 -110
114 -110 120 0 6 -45 55 -100 110 -55 55 -100 104 -100 110 0 6 -45 55 -100
110 -55 55 -100 104 -100 110 0 6 -49 60 -110 120 -60 60 -110 114 -110 120 0
6 -45 55 -100 110 -55 55 -100 104 -100 110 0 6 -45 55 -100 110 -55 55 -100
104 -100 110 0 6 -49 60 -110 120 -60 60 -110 114 -110 120 0 10 -225 240
-235 240 -3 0 -5 -1093 -5 -2430z"/>
<path d="M9960 10292 c0 -4 9 -14 20 -22 11 -8 20 -20 20 -28 0 -7 50 -62 110
-122 61 -60 110 -114 110 -120 0 -6 45 -55 100 -110 55 -55 100 -104 100 -110
0 -6 50 -60 110 -120 61 -60 110 -114 110 -120 0 -6 45 -55 100 -110 55 -55
100 -104 100 -110 0 -6 50 -60 110 -120 61 -60 110 -114 110 -120 0 -6 32 -42
70 -80 39 -38 70 -76 70 -85 0 -8 7 -15 16 -15 18 0 44 -23 44 -40 0 -6 32
-42 70 -80 39 -38 70 -76 70 -85 0 -8 7 -15 16 -15 18 0 44 -23 44 -40 0 -6
36 -46 80 -90 44 -44 80 -86 80 -95 0 -8 7 -15 16 -15 18 0 44 -23 44 -40 0
-6 36 -46 80 -90 44 -44 80 -86 80 -95 0 -8 7 -15 16 -15 18 0 44 -23 44 -40
0 -6 32 -42 70 -80 39 -38 70 -76 70 -85 0 -8 7 -15 16 -15 18 0 44 -23 44
-40 0 -6 32 -42 70 -80 39 -38 70 -74 70 -80 0 -17 26 -40 44 -40 9 0 16 -7
16 -15 0 -9 36 -51 80 -95 44 -44 80 -84 80 -90 0 -17 26 -40 44 -40 9 0 16
-7 16 -15 0 -9 36 -51 80 -95 44 -44 80 -86 80 -95 0 -8 7 -15 15 -15 18 0 85
-64 85 -80 0 -6 45 -55 100 -110 55 -55 100 -104 100 -110 0 -6 50 -60 110
-120 61 -60 110 -114 110 -120 0 -6 32 -42 70 -80 39 -38 70 -76 70 -85 0 -8
7 -15 16 -15 18 0 44 -23 44 -40 0 -6 36 -46 80 -90 44 -44 80 -86 80 -95 0
-8 7 -15 16 -15 18 0 44 -23 44 -40 0 -6 32 -42 70 -80 39 -38 70 -74 70 -80
0 -17 26 -40 44 -40 9 0 16 -7 16 -15 0 -9 32 -47 70 -85 39 -38 70 -74 70
-80 0 -17 26 -40 44 -40 9 0 16 -7 16 -15 0 -9 36 -51 80 -95 44 -44 80 -84
80 -90 0 -17 26 -40 44 -40 9 0 16 -7 16 -15 0 -8 34 -49 75 -90 65 -65 79
-75 110 -75 l35 0 0 240 c0 153 -4 240 -10 240 -6 0 -10 40 -10 100 0 60 -4
100 -10 100 -6 0 -10 27 -10 60 0 33 -4 60 -10 60 -5 0 -10 23 -10 50 0 28 -4
50 -10 50 -5 0 -10 23 -10 50 0 28 -4 50 -10 50 -5 0 -10 18 -10 40 0 22 -4
40 -10 40 -5 0 -10 23 -10 50 0 28 -4 50 -10 50 -5 0 -10 14 -10 30 0 17 -4
30 -10 30 -5 0 -10 18 -10 40 0 22 -4 40 -10 40 -5 0 -10 14 -10 30 0 17 -4
30 -10 30 -5 0 -10 18 -10 40 0 22 -4 40 -10 40 -5 0 -10 14 -10 30 0 17 -4
30 -10 30 -5 0 -10 14 -10 30 0 17 -4 30 -10 30 -5 0 -10 14 -10 30 0 17 -4
30 -10 30 -5 0 -10 14 -10 30 0 17 -4 30 -10 30 -5 0 -10 9 -10 20 0 11 -4 20
-10 20 -5 0 -10 14 -10 30 0 17 -4 30 -10 30 -5 0 -10 9 -10 20 0 11 -4 20
-10 20 -5 0 -10 14 -10 30 0 17 -4 30 -10 30 -5 0 -10 9 -10 20 0 11 -4 20
-10 20 -5 0 -10 9 -10 20 0 11 -4 20 -10 20 -5 0 -10 9 -10 20 0 11 -4 20 -10
20 -5 0 -10 14 -10 30 0 17 -4 30 -10 30 -5 0 -10 9 -10 20 0 11 -4 20 -10 20
-5 0 -10 9 -10 20 0 11 -4 20 -10 20 -5 0 -10 9 -10 20 0 11 -4 20 -10 20 -5
0 -10 9 -10 20 0 11 -4 20 -10 20 -5 0 -10 9 -10 20 0 11 -4 20 -10 20 -5 0
-10 8 -10 18 0 10 -9 24 -20 32 -11 8 -20 22 -20 32 0 10 -4 18 -10 18 -5 0
-10 9 -10 20 0 11 -4 20 -10 20 -5 0 -10 9 -10 20 0 11 -4 20 -10 20 -5 0 -10
8 -10 18 0 10 -9 24 -20 32 -11 8 -20 22 -20 32 0 10 -4 18 -10 18 -5 0 -10 8
-10 18 0 10 -9 24 -20 32 -11 8 -20 21 -20 30 0 9 -9 22 -20 30 -11 8 -20 22
-20 32 0 10 -4 18 -10 18 -5 0 -10 8 -10 18 0 10 -9 24 -20 32 -11 8 -20 21
-20 28 0 8 -13 27 -30 42 -16 15 -30 34 -30 42 0 7 -9 20 -20 28 -11 8 -20 21
-20 28 0 8 -13 27 -30 42 -16 15 -30 33 -30 40 0 6 -18 29 -40 50 -22 21 -40
44 -40 50 0 6 -27 38 -60 70 -33 32 -60 64 -60 70 0 13 -347 360 -360 360 -6
0 -42 32 -80 70 -38 39 -74 70 -80 70 -6 0 -33 23 -60 50 -27 28 -54 50 -60
50 -6 0 -38 27 -70 60 -32 33 -64 60 -70 60 -7 0 -25 14 -40 30 -15 17 -34 30
-42 30 -7 0 -20 9 -28 20 -8 11 -21 20 -30 20 -9 0 -22 9 -30 20 -8 11 -21 20
-30 20 -9 0 -22 9 -30 20 -8 11 -21 20 -30 20 -9 0 -22 9 -30 20 -8 11 -22 20
-32 20 -10 0 -18 5 -18 10 0 6 -9 10 -20 10 -11 0 -20 5 -20 10 0 6 -8 10 -18
10 -10 0 -24 9 -32 20 -8 11 -22 20 -32 20 -10 0 -18 5 -18 10 0 6 -9 10 -20
10 -11 0 -20 5 -20 10 0 6 -9 10 -20 10 -11 0 -20 5 -20 10 0 6 -9 10 -20 10
-11 0 -20 5 -20 10 0 6 -9 10 -20 10 -11 0 -20 5 -20 10 0 6 -9 10 -20 10 -11
0 -20 5 -20 10 0 6 -9 10 -20 10 -11 0 -20 5 -20 10 0 6 -9 10 -20 10 -11 0
-20 5 -20 10 0 6 -9 10 -20 10 -11 0 -20 5 -20 10 0 6 -9 10 -20 10 -11 0 -20
5 -20 10 0 6 -9 10 -20 10 -11 0 -20 5 -20 10 0 6 -9 10 -20 10 -11 0 -20 5
-20 10 0 6 -13 10 -30 10 -16 0 -30 5 -30 10 0 6 -9 10 -20 10 -11 0 -20 5
-20 10 0 6 -13 10 -30 10 -16 0 -30 5 -30 10 0 6 -13 10 -30 10 -16 0 -30 5
-30 10 0 6 -9 10 -20 10 -11 0 -20 5 -20 10 0 6 -13 10 -30 10 -16 0 -30 5
-30 10 0 6 -13 10 -30 10 -16 0 -30 5 -30 10 0 6 -13 10 -30 10 -16 0 -30 5
-30 10 0 6 -18 10 -40 10 -22 0 -40 5 -40 10 0 6 -13 10 -30 10 -16 0 -30 5
-30 10 0 6 -18 10 -40 10 -22 0 -40 5 -40 10 0 6 -18 10 -40 10 -22 0 -40 5
-40 10 0 6 -22 10 -50 10 -27 0 -50 5 -50 10 0 6 -22 10 -50 10 -27 0 -50 5
-50 10 0 6 -27 10 -60 10 -33 0 -60 4 -60 10 0 6 -33 10 -80 10 -47 0 -80 4
-80 10 0 6 -18 10 -40 10 -22 0 -40 5 -40 10 0 6 -53 10 -140 10 -77 0 -140
-4 -140 -8z"/>
<path d="M9583 10094 c-90 -90 -163 -168 -163 -174 0 -6 -67 -78 -150 -160
-82 -82 -150 -154 -150 -160 0 -6 -58 -69 -130 -140 -71 -71 -130 -134 -130
-140 0 -17 -26 -40 -44 -40 -9 0 -16 -7 -16 -15 0 -9 -58 -74 -130 -145 -71
-71 -130 -136 -130 -145 0 -8 -9 -15 -20 -15 -11 0 -20 -7 -20 -15 0 -9 -49
-65 -110 -125 -60 -60 -110 -114 -110 -120 0 -6 -90 -100 -200 -210 -110 -110
-200 -204 -200 -210 0 -6 -58 -69 -130 -140 -71 -71 -130 -134 -130 -140 0 -6
-63 -73 -140 -150 -77 -77 -140 -144 -140 -150 0 -16 -67 -80 -85 -80 -8 0
-15 -7 -15 -15 0 -9 -54 -69 -120 -135 -66 -66 -120 -126 -120 -135 0 -8 -9
-15 -20 -15 -11 0 -20 -7 -20 -15 0 -9 -58 -74 -130 -145 -71 -71 -130 -134
-130 -140 0 -6 -63 -73 -140 -150 -77 -77 -140 -146 -140 -155 0 -8 -7 -15
-16 -15 -18 0 -44 -23 -44 -40 0 -6 -58 -69 -130 -140 -71 -71 -130 -134 -130
-140 0 -6 -63 -73 -140 -150 -77 -77 -140 -144 -140 -150 0 -6 -58 -69 -130
-140 -71 -71 -130 -134 -130 -140 0 -15 -25 -40 -40 -40 -14 0 -60 -46 -60
-60 0 -6 -54 -64 -120 -130 -66 -66 -120 -122 -120 -125 0 -3 1022 -5 2270 -5
l2270 0 0 2410 c0 1326 -3 2410 -7 2409 -5 0 -81 -74 -170 -165z"/>
<path d="M320 2850 c0 -2503 0 -2510 20 -2510 11 0 20 7 20 15 0 20 85 105
105 105 8 0 15 7 15 15 0 9 59 74 130 145 71 71 130 134 130 140 0 6 63 73
140 150 77 77 140 144 140 150 0 6 59 69 130 140 72 71 130 134 130 140 0 17
26 40 44 40 9 0 16 7 16 15 0 9 59 74 130 145 72 71 130 136 130 145 0 8 9 15
20 15 11 0 20 7 20 15 0 9 54 69 120 135 66 66 120 126 120 135 0 8 9 15 20
15 11 0 20 7 20 15 0 9 81 96 180 195 99 99 180 184 180 190 0 6 54 64 120
130 66 66 120 124 120 130 0 6 63 73 140 150 77 77 140 144 140 150 0 16 67
80 85 80 8 0 15 7 15 15 0 9 63 78 140 155 77 77 140 144 140 150 0 6 59 69
130 140 72 71 130 134 130 140 0 6 63 73 140 150 77 77 140 146 140 155 0 8 7
15 16 15 18 0 44 23 44 40 0 6 59 69 130 140 72 71 130 134 130 140 0 6 72 82
160 170 88 88 160 164 160 170 0 6 50 60 110 120 61 60 110 116 110 125 0 8 7
15 15 15 18 0 85 64 85 80 0 6 63 73 140 150 77 77 140 146 140 155 0 8 9 15
20 15 13 0 20 7 20 18 0 10 9 24 20 32 11 8 20 18 20 22 0 4 -1062 8 -2360 8
l-2360 0 0 -2510z"/>
<path d="M5123 5335 c-23 -24 -23 -28 -23 -300 0 -177 4 -275 10 -275 15 0 13
-157 -2 -163 -9 -3 -6 -11 10 -24 24 -23 31 -88 10 -96 -9 -3 -6 -11 10 -24
24 -22 30 -68 10 -76 -9 -3 -6 -11 10 -24 24 -22 30 -68 10 -76 -9 -3 -6 -11
10 -24 15 -14 22 -32 22 -57 0 -20 5 -36 10 -36 15 0 12 -58 -2 -63 -9 -3 -6
-11 10 -24 12 -12 22 -32 22 -47 0 -14 5 -26 10 -26 6 0 10 -18 10 -40 0 -22
5 -40 10 -40 6 0 10 -13 10 -30 0 -16 5 -30 10 -30 14 0 12 -38 -2 -43 -9 -3
-6 -11 10 -24 12 -12 22 -32 22 -47 0 -14 5 -26 10 -26 6 0 10 -13 10 -30 0
-16 5 -30 10 -30 6 0 10 -13 10 -30 0 -16 5 -30 10 -30 6 0 10 -13 10 -30 0
-16 5 -30 10 -30 6 0 10 -9 10 -20 0 -11 5 -20 10 -20 6 0 10 -13 10 -30 0
-16 5 -30 10 -30 6 0 10 -9 10 -20 0 -11 5 -20 10 -20 6 0 10 -13 10 -30 0
-16 5 -30 10 -30 6 0 10 -9 10 -20 0 -11 5 -20 10 -20 6 0 10 -9 10 -20 0 -11
5 -20 10 -20 6 0 10 -9 10 -20 0 -11 5 -20 10 -20 6 0 10 -13 10 -30 0 -16 5
-30 10 -30 6 0 10 -9 10 -20 0 -11 5 -20 10 -20 6 0 10 -9 10 -20 0 -11 5 -20
10 -20 6 0 10 -9 10 -20 0 -11 5 -20 10 -20 6 0 10 -9 10 -20 0 -11 5 -20 10
-20 6 0 10 -9 10 -20 0 -11 5 -20 10 -20 14 0 12 -38 -2 -43 -7 -2 -9 -8 -5
-13 4 -5 12 -2 17 5 7 12 11 12 24 -2 9 -8 16 -23 16 -31 0 -9 5 -16 10 -16 6
0 10 -9 10 -20 0 -11 5 -20 10 -20 6 0 10 -9 10 -20 0 -11 5 -20 10 -20 14 0
12 -38 -2 -43 -7 -2 -9 -8 -5 -13 4 -5 12 -2 17 5 7 12 11 12 24 -2 9 -8 16
-23 16 -31 0 -9 5 -16 10 -16 14 0 12 -38 -2 -43 -7 -2 -9 -8 -5 -13 4 -5 12
-2 17 5 7 12 11 12 24 -2 9 -8 16 -22 16 -29 0 -8 9 -20 20 -28 11 -8 20 -22
20 -32 0 -10 5 -18 10 -18 14 0 12 -38 -2 -43 -7 -2 -9 -8 -5 -13 4 -5 12 -2
17 5 7 12 11 12 24 -2 19 -19 21 -44 4 -50 -7 -2 -9 -8 -5 -13 4 -5 12 -2 17
5 6 11 13 8 34 -12 30 -30 32 -42 11 -63 -13 -14 -17 -14 -30 0 -8 8 -15 21
-15 28 0 8 -9 20 -20 28 -11 8 -20 21 -20 30 0 9 -9 22 -20 30 -11 8 -20 21
-20 30 0 9 -9 22 -20 30 -11 8 -20 22 -20 32 0 10 -4 18 -10 18 -5 0 -10 8
-10 18 0 10 -9 24 -20 32 -11 8 -20 22 -20 32 0 10 -4 18 -10 18 -5 0 -10 8
-10 18 0 10 -9 24 -20 32 -11 8 -20 22 -20 32 0 10 -4 18 -10 18 -5 0 -10 9
-10 20 0 11 -4 20 -10 20 -5 0 -10 9 -10 20 0 11 -4 20 -10 20 -5 0 -10 8 -10
18 0 10 -9 24 -20 32 -11 8 -20 22 -20 32 0 10 -4 18 -10 18 -5 0 -10 9 -10
20 0 11 -4 20 -10 20 -5 0 -10 9 -10 20 0 11 -4 20 -10 20 -5 0 -10 9 -10 20
0 11 -4 20 -10 20 -5 0 -10 9 -10 20 0 11 -4 20 -10 20 -5 0 -10 14 -10 30 0
17 -4 30 -10 30 -5 0 -10 9 -10 20 0 11 -4 20 -10 20 -5 0 -10 9 -10 20 0 11
-4 20 -10 20 -5 0 -10 9 -10 20 0 11 -4 20 -10 20 -5 0 -10 14 -10 30 0 17 -4
30 -10 30 -5 0 -10 9 -10 20 0 11 -4 20 -10 20 -5 0 -10 14 -10 30 0 17 -4 30
-10 30 -5 0 -10 13 -10 29 0 16 -6 32 -12 35 -10 5 -10 7 0 12 19 9 14 24 -8
24 -16 0 -20 7 -20 30 0 17 -4 30 -10 30 -5 0 -10 14 -10 30 0 17 -4 30 -10
30 -5 0 -10 14 -10 30 0 17 -4 30 -10 30 -5 0 -10 18 -10 40 0 22 -4 40 -10
40 -5 0 -10 14 -10 30 0 17 -4 30 -10 30 -5 0 -10 14 -10 30 0 17 -4 30 -10
30 -5 0 -10 18 -10 40 0 22 -4 40 -10 40 -5 0 -10 18 -10 40 0 22 -4 40 -10
40 -5 0 -10 18 -10 40 0 22 -4 40 -10 40 -5 0 -10 23 -10 50 0 28 -4 50 -10
50 -5 0 -10 18 -10 40 0 22 -4 40 -10 40 -6 0 -10 27 -10 60 0 33 -4 60 -10
60 -6 0 -10 27 -10 60 0 33 -4 60 -10 60 -6 0 -10 33 -10 80 0 47 -4 80 -10
80 -6 0 -10 40 -10 100 0 60 -4 100 -10 100 -6 0 -10 57 -10 150 0 83 -2 150
-5 150 -10 0 -115 -110 -115 -120 0 -6 -81 -91 -180 -190 -99 -99 -180 -184
-180 -190 0 -6 -63 -73 -140 -150 -77 -77 -140 -144 -140 -150 0 -6 -58 -69
-130 -140 -71 -71 -130 -134 -130 -140 0 -15 -25 -40 -40 -40 -15 0 -40 -25
-40 -40 0 -6 -58 -69 -130 -140 -71 -71 -130 -136 -130 -145 0 -8 -9 -15 -20
-15 -11 0 -20 -7 -20 -15 0 -9 -49 -65 -110 -125 -60 -60 -110 -114 -110 -120
0 -17 -26 -40 -44 -40 -9 0 -16 -7 -16 -15 0 -9 -58 -74 -130 -145 -71 -71
-130 -136 -130 -145 0 -8 -7 -15 -16 -15 -18 0 -44 -23 -44 -40 0 -6 -63 -73
-140 -150 -77 -77 -140 -144 -140 -150 0 -6 -58 -69 -130 -140 -71 -71 -130
-134 -130 -140 0 -16 -67 -80 -85 -80 -8 0 -15 -7 -15 -15 0 -9 -50 -65 -110
-125 -60 -60 -110 -116 -110 -125 0 -8 -9 -15 -20 -15 -11 0 -20 -7 -20 -15 0
-9 -63 -78 -140 -155 -77 -77 -140 -144 -140 -150 0 -16 -88 -100 -105 -100
-8 0 -15 -7 -15 -15 0 -9 -31 -47 -70 -85 -38 -38 -70 -74 -70 -80 0 -14 -46
-60 -60 -60 -15 0 -40 -25 -40 -40 0 -6 -54 -64 -120 -130 -66 -66 -120 -126
-120 -135 0 -8 -7 -15 -16 -15 -18 0 -44 -23 -44 -40 0 -6 -58 -69 -130 -140
-72 -71 -130 -134 -130 -140 0 -6 -58 -69 -130 -140 -71 -71 -130 -136 -130
-145 0 -8 -7 -15 -16 -15 -8 0 -22 -6 -30 -14 -8 -8 -14 -22 -14 -30 0 -9 -8
-16 -20 -16 -11 0 -20 -7 -20 -15 0 -9 -31 -47 -70 -85 -38 -38 -70 -72 -70
-75 0 -3 1980 -5 4400 -5 2927 0 4400 3 4400 10 0 6 -30 10 -70 10 -40 0 -70
4 -70 10 0 6 -27 10 -60 10 -33 0 -60 4 -60 10 0 6 -22 10 -50 10 -27 0 -50 5
-50 10 0 6 -22 10 -50 10 -27 0 -50 5 -50 10 0 6 -18 10 -40 10 -22 0 -40 5
-40 10 0 6 -18 10 -40 10 -22 0 -40 5 -40 10 0 6 -18 10 -40 10 -22 0 -40 5
-40 10 0 6 -13 10 -30 10 -16 0 -30 5 -30 10 0 6 -13 10 -30 10 -16 0 -30 5
-30 10 0 6 -13 10 -30 10 -16 0 -30 5 -30 10 0 6 -13 10 -30 10 -16 0 -30 5
-30 10 0 6 -13 10 -30 10 -16 0 -30 5 -30 10 0 6 -13 10 -30 10 -16 0 -30 5
-30 10 0 6 -9 10 -20 10 -11 0 -20 5 -20 10 0 6 -13 10 -30 10 -16 0 -30 5
-30 10 0 6 -9 10 -20 10 -11 0 -20 5 -20 10 0 6 -13 10 -30 10 -16 0 -30 5
-30 10 0 6 -9 10 -20 10 -11 0 -20 5 -20 10 0 6 -9 10 -20 10 -11 0 -20 5 -20
10 0 6 -9 10 -20 10 -11 0 -20 5 -20 10 0 6 -9 10 -20 10 -11 0 -20 5 -20 10
0 6 -9 10 -20 10 -11 0 -20 5 -20 10 0 6 -9 10 -20 10 -11 0 -20 5 -20 10 0 6
-9 10 -20 10 -11 0 -20 5 -20 10 0 6 -9 10 -20 10 -11 0 -20 5 -20 10 0 6 -9
10 -20 10 -11 0 -20 5 -20 10 0 6 -9 10 -20 10 -11 0 -20 5 -20 10 0 6 -8 10
-18 10 -10 0 -24 9 -32 20 -8 11 -22 20 -32 20 -10 0 -18 5 -18 10 0 6 -9 10
-20 10 -11 0 -20 5 -20 10 0 6 -7 10 -16 10 -8 0 -23 7 -31 16 -14 13 -14 17
-2 24 7 5 10 13 5 17 -5 4 -11 2 -13 -4 -7 -20 -37 -15 -53 7 -8 11 -21 20
-30 20 -9 0 -22 9 -30 20 -8 11 -20 20 -28 20 -7 0 -21 7 -29 16 -14 13 -14
17 -2 24 7 5 10 13 5 17 -5 4 -11 2 -13 -4 -6 -18 -31 -16 -50 3 -14 13 -14
17 -2 24 7 5 10 12 6 17 -5 4 -13 1 -18 -7 -8 -11 -12 -12 -16 -2 -2 6 -11 12
-20 12 -8 0 -22 7 -30 16 -14 13 -14 17 -2 24 7 5 10 13 5 17 -5 4 -11 2 -13
-4 -8 -23 -34 -14 -73 27 -21 22 -44 40 -50 40 -6 0 -29 18 -50 40 -21 22 -44
40 -50 40 -6 0 -42 32 -80 70 -38 39 -74 70 -80 70 -13 0 -300 287 -300 300 0
6 -31 42 -70 80 -38 38 -70 74 -70 80 0 6 -22 33 -50 60 -27 27 -50 54 -50 60
0 7 -13 25 -30 40 -16 15 -30 33 -30 40 0 7 -13 25 -30 40 -16 15 -30 35 -30
43 0 9 -6 17 -12 19 -9 3 -8 9 5 22 15 15 19 16 32 2 18 -18 20 -43 3 -49 -7
-2 -9 -8 -5 -13 4 -5 12 -2 17 5 6 11 13 8 34 -12 28 -28 34 -53 14 -59 -9 -3
-8 -10 5 -22 10 -10 21 -15 25 -12 3 4 0 11 -8 16 -8 5 -11 12 -8 15 9 9 78
-61 78 -79 0 -8 -6 -16 -12 -18 -9 -3 -8 -10 5 -22 10 -10 21 -15 25 -12 3 4
0 11 -8 16 -8 5 -12 12 -8 15 9 9 118 -101 118 -119 0 -8 -6 -16 -12 -19 -7
-2 -9 -8 -5 -13 4 -5 12 -2 16 5 7 10 52 -29 170 -148 88 -88 165 -161 171
-161 6 0 42 -31 80 -70 38 -39 74 -70 80 -70 6 0 33 -22 60 -50 27 -27 54 -50
60 -50 6 0 38 -27 70 -60 32 -33 64 -60 70 -60 7 0 25 -13 40 -30 15 -16 34
-30 42 -30 7 0 20 -9 28 -20 8 -11 21 -20 30 -20 9 0 22 -9 30 -20 8 -11 21
-20 30 -20 9 0 22 -9 30 -20 8 -11 21 -20 30 -20 9 0 22 -9 30 -20 8 -11 22
-20 32 -20 10 0 18 -4 18 -10 0 -5 9 -10 20 -10 11 0 20 -4 20 -10 0 -5 8 -10
18 -10 10 0 24 -9 32 -20 8 -11 22 -20 32 -20 10 0 18 -4 18 -10 0 -5 9 -10
20 -10 11 0 20 -4 20 -10 0 -5 9 -10 20 -10 11 0 20 -4 20 -10 0 -5 9 -10 20
-10 11 0 20 -4 20 -10 0 -5 9 -10 20 -10 11 0 20 -4 20 -10 0 -5 9 -10 20 -10
11 0 20 -4 20 -10 0 -5 9 -10 20 -10 11 0 20 -4 20 -10 0 -5 9 -10 20 -10 11
0 20 -4 20 -10 0 -5 9 -10 20 -10 11 0 20 -4 20 -10 0 -5 9 -10 20 -10 11 0
20 -4 20 -10 0 -5 9 -10 20 -10 11 0 20 -4 20 -10 0 -5 9 -10 20 -10 11 0 20
-4 20 -10 0 -5 14 -10 30 -10 17 0 30 -4 30 -10 0 -5 9 -10 20 -10 11 0 20 -4
20 -10 0 -5 14 -10 30 -10 17 0 30 -4 30 -10 0 -5 14 -10 30 -10 17 0 30 -4
30 -10 0 -5 9 -10 20 -10 11 0 20 -4 20 -10 0 -5 14 -10 30 -10 17 0 30 -4 30
-10 0 -5 14 -10 30 -10 17 0 30 -4 30 -10 0 -5 14 -10 30 -10 17 0 30 -4 30
-10 0 -5 18 -10 40 -10 22 0 40 -4 40 -10 0 -5 14 -10 30 -10 17 0 30 -4 30
-10 0 -5 18 -10 40 -10 22 0 40 -4 40 -10 0 -5 18 -10 40 -10 22 0 40 -4 40
-10 0 -5 23 -10 50 -10 28 0 50 -4 50 -10 0 -5 23 -10 50 -10 28 0 50 -4 50
-10 0 -6 27 -10 60 -10 33 0 60 -4 60 -10 0 -6 33 -10 80 -10 47 0 80 -4 80
-10 0 -5 18 -10 40 -10 22 0 40 -4 40 -10 0 -6 83 -10 230 -10 l230 0 0 2480
0 2480 -2307 -1 -2308 0 -22 -24z"/>
<path d="M9840 2880 l0 -2480 200 0 c127 0 200 4 200 10 0 6 18 10 40 10 22 0
40 5 40 10 0 6 33 10 80 10 47 0 80 4 80 10 0 6 27 10 60 10 33 0 60 4 60 10
0 6 23 10 50 10 28 0 50 5 50 10 0 6 23 10 50 10 28 0 50 5 50 10 0 6 18 10
40 10 22 0 40 5 40 10 0 6 18 10 40 10 22 0 40 5 40 10 0 6 14 10 30 10 17 0
30 5 30 10 0 6 18 10 40 10 22 0 40 5 40 10 0 6 14 10 30 10 17 0 30 5 30 10
0 6 14 10 30 10 17 0 30 5 30 10 0 6 14 10 30 10 17 0 30 5 30 10 0 6 9 10 20
10 11 0 20 5 20 10 0 6 14 10 30 10 17 0 30 5 30 10 0 6 14 10 30 10 17 0 30
5 30 10 0 6 9 10 20 10 11 0 20 5 20 10 0 6 14 10 30 10 17 0 30 5 30 10 0 6
9 10 20 10 11 0 20 5 20 10 0 6 9 10 20 10 11 0 20 5 20 10 0 6 9 10 20 10 11
0 20 5 20 10 0 6 9 10 20 10 11 0 20 5 20 10 0 6 9 10 20 10 11 0 20 5 20 10
0 6 9 10 20 10 11 0 20 5 20 10 0 6 9 10 20 10 11 0 20 5 20 10 0 6 9 10 20
10 11 0 20 5 20 10 0 6 9 10 20 10 11 0 20 5 20 10 0 6 9 10 20 10 11 0 20 5
20 10 0 6 9 10 20 10 11 0 20 5 20 10 0 6 8 10 18 10 10 0 24 9 32 20 8 11 22
20 32 20 10 0 18 5 18 10 0 6 9 10 20 10 11 0 20 5 20 10 0 6 8 10 18 10 10 0
24 9 32 20 8 11 21 20 30 20 9 0 22 9 30 20 8 11 21 20 30 20 9 0 22 9 30 20
8 11 21 20 30 20 9 0 22 9 30 20 8 11 21 20 28 20 8 0 27 14 42 30 15 17 33
30 40 30 6 0 38 27 70 60 32 33 64 60 70 60 6 0 33 23 60 50 27 28 54 50 60
50 6 0 42 31 80 70 38 38 74 70 80 70 13 0 360 347 360 360 0 6 27 38 60 70
33 32 60 64 60 70 0 6 18 29 40 50 22 21 40 44 40 50 0 7 14 25 30 40 17 15
30 34 30 42 0 7 9 20 20 28 11 8 20 21 20 28 0 8 14 27 30 42 17 15 30 34 30
42 0 7 9 20 20 28 11 8 20 22 20 32 0 10 5 18 10 18 6 0 10 8 10 18 0 10 9 24
20 32 11 8 20 21 20 30 0 9 9 22 20 30 11 8 20 22 20 32 0 10 5 18 10 18 6 0
10 8 10 18 0 10 9 24 20 32 11 8 20 22 20 32 0 10 5 18 10 18 6 0 10 9 10 20
0 11 5 20 10 20 6 0 10 9 10 20 0 11 5 20 10 20 6 0 10 8 10 18 0 10 9 24 20
32 11 8 20 22 20 32 0 10 5 18 10 18 6 0 10 9 10 20 0 11 5 20 10 20 6 0 10 9
10 20 0 11 5 20 10 20 6 0 10 9 10 20 0 11 5 20 10 20 6 0 10 9 10 20 0 11 5
20 10 20 6 0 10 9 10 20 0 11 5 20 10 20 6 0 10 14 10 30 0 17 5 30 10 30 6 0
10 9 10 20 0 11 5 20 10 20 6 0 10 9 10 20 0 11 5 20 10 20 6 0 10 9 10 20 0
11 5 20 10 20 6 0 10 14 10 30 0 17 5 30 10 30 6 0 10 9 10 20 0 11 5 20 10
20 6 0 10 14 10 30 0 17 5 30 10 30 6 0 10 9 10 20 0 11 5 20 10 20 6 0 10 14
10 30 0 17 5 30 10 30 6 0 10 14 10 30 0 17 5 30 10 30 6 0 10 14 10 30 0 17
5 30 10 30 6 0 10 14 10 30 0 17 5 30 10 30 6 0 10 18 10 40 0 22 5 40 10 40
6 0 10 14 10 30 0 17 5 30 10 30 6 0 10 18 10 40 0 22 5 40 10 40 6 0 10 14
10 30 0 17 5 30 10 30 6 0 10 23 10 50 0 28 5 50 10 50 6 0 10 18 10 40 0 22
5 40 10 40 6 0 10 23 10 50 0 28 5 50 10 50 6 0 10 23 10 50 0 28 5 50 10 50
6 0 10 27 10 60 0 33 4 60 10 60 6 0 10 40 10 100 0 60 4 100 10 100 6 0 10
89 10 246 0 256 -3 274 -44 274 -9 0 -16 7 -16 16 0 46 121 44 -2294 44
l-2266 0 0 -2480z"/>
<path d="M14540 5314 c0 -38 5 -51 30 -74 17 -15 30 -33 30 -40 0 -16 26 -40
44 -40 9 0 16 -7 16 -15 0 -9 32 -47 70 -85 39 -38 70 -74 70 -80 0 -6 50 -60
110 -120 61 -60 110 -114 110 -120 0 -6 50 -60 110 -120 61 -60 110 -114 110
-120 0 -6 45 -55 100 -110 55 -55 100 -104 100 -110 0 -6 45 -55 100 -110 55
-55 100 -104 100 -110 0 -6 50 -60 110 -120 61 -60 110 -114 110 -120 0 -6 45
-55 100 -110 55 -55 100 -104 100 -110 0 -6 45 -55 100 -110 55 -55 100 -104
100 -110 0 -6 50 -60 110 -120 61 -60 110 -114 110 -120 0 -6 50 -60 110 -120
61 -60 110 -114 110 -120 0 -6 45 -55 100 -110 55 -55 100 -104 100 -110 0 -6
45 -55 100 -110 55 -55 100 -104 100 -110 0 -6 50 -60 110 -120 61 -60 110
-114 110 -120 0 -6 50 -60 110 -120 61 -60 110 -114 110 -120 0 -6 45 -55 100
-110 55 -55 100 -104 100 -110 0 -6 45 -55 100 -110 55 -55 100 -104 100 -110
0 -6 50 -60 110 -120 61 -60 110 -114 110 -120 0 -6 45 -55 100 -110 55 -55
100 -104 100 -110 0 -6 45 -55 100 -110 55 -55 100 -104 100 -110 0 -6 50 -60
110 -120 61 -60 110 -114 110 -120 0 -6 50 -60 110 -120 82 -82 110 -116 110
-135 0 -14 5 -25 10 -25 7 0 10 843 10 2510 l0 2510 -2240 0 -2240 0 0 -46z"/>
<path d="M14540 5070 c0 -53 -4 -90 -10 -90 -6 0 -10 -43 -10 -110 0 -67 -4
-110 -10 -110 -6 0 -10 -33 -10 -80 0 -47 -4 -80 -10 -80 -6 0 -10 -27 -10
-60 0 -33 -4 -60 -10 -60 -5 0 -10 -22 -10 -50 0 -27 -4 -50 -10 -50 -5 0 -10
-22 -10 -50 0 -27 -4 -50 -10 -50 -5 0 -10 -22 -10 -50 0 -27 -4 -50 -10 -50
-5 0 -10 -18 -10 -40 0 -22 -4 -40 -10 -40 -5 0 -10 -18 -10 -40 0 -22 -4 -40
-10 -40 -5 0 -10 -18 -10 -40 0 -22 -4 -40 -10 -40 -5 0 -10 -13 -10 -30 0
-16 -4 -30 -10 -30 -5 0 -10 -13 -10 -30 0 -16 -4 -30 -10 -30 -5 0 -10 -18
-10 -40 0 -22 -4 -40 -10 -40 -5 0 -10 -13 -10 -30 0 -16 -4 -30 -10 -30 -5 0
-10 -13 -10 -30 0 -16 -4 -30 -10 -30 -5 0 -10 -13 -10 -30 0 -16 -4 -30 -10
-30 -5 0 -10 -9 -10 -20 0 -11 -4 -20 -10 -20 -5 0 -10 -13 -10 -30 0 -16 -4
-30 -10 -30 -5 0 -10 -13 -10 -30 0 -16 -4 -30 -10 -30 -5 0 -10 -9 -10 -20 0
-11 -4 -20 -10 -20 -5 0 -10 -13 -10 -30 0 -16 -4 -30 -10 -30 -5 0 -10 -9
-10 -20 0 -11 -4 -20 -10 -20 -5 0 -10 -9 -10 -20 0 -11 -4 -20 -10 -20 -5 0
-10 -9 -10 -20 0 -11 -4 -20 -10 -20 -5 0 -10 -13 -10 -30 0 -16 -4 -30 -10
-30 -5 0 -10 -9 -10 -20 0 -11 -4 -20 -10 -20 -5 0 -10 -9 -10 -20 0 -11 -4
-20 -10 -20 -5 0 -10 -9 -10 -20 0 -11 -4 -20 -10 -20 -5 0 -10 -9 -10 -20 0
-11 -4 -20 -10 -20 -5 0 -10 -8 -10 -18 0 -10 -9 -24 -20 -32 -11 -8 -20 -22
-20 -32 0 -10 -4 -18 -10 -18 -5 0 -10 -9 -10 -20 0 -11 -4 -20 -10 -20 -5 0
-10 -9 -10 -20 0 -11 -4 -20 -10 -20 -5 0 -10 -8 -10 -18 0 -10 -9 -24 -20
-32 -11 -8 -20 -22 -20 -32 0 -10 -4 -18 -10 -18 -5 0 -10 -8 -10 -18 0 -10
-9 -24 -20 -32 -11 -8 -20 -22 -20 -32 0 -10 -4 -18 -10 -18 -5 0 -10 -8 -10
-18 0 -10 -9 -24 -20 -32 -11 -8 -20 -21 -20 -30 0 -9 -9 -22 -20 -30 -11 -8
-20 -21 -20 -30 0 -9 -9 -22 -20 -30 -11 -8 -20 -21 -20 -28 0 -8 -13 -27 -30
-42 -16 -15 -30 -34 -30 -42 0 -7 -9 -20 -20 -28 -11 -8 -20 -21 -20 -28 0 -7
-18 -31 -40 -52 -22 -21 -40 -44 -40 -50 0 -6 -18 -29 -40 -50 -22 -21 -40
-44 -40 -50 0 -6 -31 -42 -70 -80 -38 -38 -70 -74 -70 -80 0 -13 -367 -380
-381 -380 -5 0 -32 -22 -59 -50 -27 -27 -54 -50 -60 -50 -6 0 -33 -22 -60 -50
-27 -27 -54 -50 -60 -50 -7 0 -25 -13 -40 -30 -15 -16 -33 -30 -40 -30 -7 0
-25 -13 -40 -30 -15 -16 -34 -30 -42 -30 -7 0 -20 -9 -28 -20 -8 -11 -21 -20
-28 -20 -8 0 -27 -14 -42 -30 -15 -16 -34 -30 -42 -30 -7 0 -20 -9 -28 -20 -8
-11 -22 -20 -32 -20 -10 0 -18 -4 -18 -10 0 -5 -8 -10 -18 -10 -10 0 -24 -9
-32 -20 -8 -11 -22 -20 -32 -20 -10 0 -18 -4 -18 -10 0 -5 -8 -10 -18 -10 -10
0 -24 -9 -32 -20 -8 -11 -22 -20 -32 -20 -10 0 -18 -4 -18 -10 0 -5 -9 -10
-20 -10 -11 0 -20 -4 -20 -10 0 -5 -9 -10 -20 -10 -11 0 -20 -4 -20 -10 0 -5
-9 -10 -20 -10 -11 0 -20 -4 -20 -10 0 -5 -9 -10 -20 -10 -11 0 -20 -4 -20
-10 0 -5 -9 -10 -20 -10 -11 0 -20 -4 -20 -10 0 -5 -9 -10 -20 -10 -11 0 -20
-4 -20 -10 0 -5 -9 -10 -20 -10 -11 0 -20 -4 -20 -10 0 -5 -9 -10 -20 -10 -11
0 -20 -4 -20 -10 0 -5 -9 -10 -20 -10 -11 0 -20 -4 -20 -10 0 -5 -9 -10 -20
-10 -11 0 -20 -4 -20 -10 0 -5 -9 -10 -20 -10 -11 0 -20 -4 -20 -10 0 -5 -13
-10 -30 -10 -16 0 -30 -4 -30 -10 0 -5 -9 -10 -20 -10 -11 0 -20 -4 -20 -10 0
-5 -13 -10 -30 -10 -16 0 -30 -4 -30 -10 0 -5 -9 -10 -20 -10 -11 0 -20 -4
-20 -10 0 -5 -13 -10 -30 -10 -16 0 -30 -4 -30 -10 0 -5 -13 -10 -30 -10 -16
0 -30 -4 -30 -10 0 -5 -13 -10 -30 -10 -16 0 -30 -4 -30 -10 0 -5 -13 -10 -30
-10 -16 0 -30 -4 -30 -10 0 -5 -13 -10 -30 -10 -16 0 -30 -4 -30 -10 0 -5 -13
-10 -30 -10 -16 0 -30 -4 -30 -10 0 -5 -18 -10 -40 -10 -22 0 -40 -4 -40 -10
0 -5 -18 -10 -40 -10 -22 0 -40 -4 -40 -10 0 -5 -18 -10 -40 -10 -22 0 -40 -4
-40 -10 0 -5 -22 -10 -50 -10 -27 0 -50 -4 -50 -10 0 -5 -22 -10 -50 -10 -27
0 -50 -4 -50 -10 0 -6 -27 -10 -60 -10 -33 0 -60 -4 -60 -10 0 -6 -30 -10 -70
-10 -40 0 -70 -4 -70 -10 0 -7 1443 -10 4310 -10 2371 0 4310 3 4310 6 0 3
-18 23 -40 44 -22 21 -40 43 -40 50 0 6 -49 60 -110 120 -60 60 -110 114 -110
120 0 6 -45 55 -100 110 -55 55 -100 104 -100 110 0 6 -49 60 -110 120 -60 60
-110 114 -110 120 0 6 -45 55 -100 110 -55 55 -100 104 -100 110 0 6 -49 60
-110 120 -60 60 -110 114 -110 120 0 6 -31 42 -70 80 -38 38 -70 76 -70 85 0
8 -7 15 -16 15 -18 0 -44 23 -44 40 0 6 -31 42 -70 80 -38 38 -70 76 -70 85 0
8 -7 15 -16 15 -18 0 -44 23 -44 40 0 6 -36 46 -80 90 -44 44 -80 86 -80 95 0
8 -7 15 -16 15 -18 0 -44 23 -44 40 0 6 -58 69 -130 140 -71 71 -130 134 -130
140 0 6 -49 60 -110 120 -60 60 -110 114 -110 120 0 6 -45 55 -100 110 -55 55
-100 104 -100 110 0 6 -45 55 -100 110 -55 55 -100 104 -100 110 0 6 -49 60
-110 120 -60 60 -110 114 -110 120 0 6 -45 55 -100 110 -55 55 -100 104 -100
110 0 6 -49 60 -110 120 -60 60 -110 114 -110 120 0 6 -31 42 -70 80 -38 38
-70 76 -70 85 0 8 -7 15 -16 15 -18 0 -44 23 -44 40 0 6 -36 46 -80 90 -44 44
-80 86 -80 95 0 8 -7 15 -16 15 -18 0 -44 23 -44 40 0 6 -31 42 -70 80 -38 38
-70 74 -70 80 0 17 -26 40 -44 40 -9 0 -16 7 -16 15 0 9 -31 47 -70 85 -38 38
-70 74 -70 80 0 17 -26 40 -44 40 -9 0 -16 7 -16 15 0 9 -36 51 -80 95 -44 44
-80 84 -80 90 0 17 -26 40 -44 40 -9 0 -16 7 -16 15 0 14 -62 85 -75 85 -3 0
-5 -40 -5 -90z"/>
<path d="M6320 1934 c0 -10 31 -36 37 -31 3 3 -2 13 -10 22 -16 15 -27 19 -27
9z"/>
</g>
</svg>
